<svg width="22" height="22" viewBox="0 0 22 22" fill="none" xmlns="http://www.w3.org/2000/svg">
<g clip-path="url(#clip0_960_7651)">
<path d="M19.25 2.4805C19.25 1.11283 18.1427 0 16.7832 0H5.21675C3.85733 0 2.75 1.11283 2.75 2.4805V20.4142C2.75 21.01 3.07817 21.5499 3.60617 21.8231C4.13142 22.0935 4.75658 22.0495 5.23875 21.7067L10.8854 17.6889C10.9532 17.6403 11.0458 17.6403 11.1146 17.6889L16.7613 21.7067C17.0335 21.9001 17.3525 21.9982 17.6724 21.9982C17.919 21.9982 18.1656 21.9404 18.3938 21.8231C18.9218 21.5508 19.25 21.0109 19.25 20.4151V2.4805ZM15.6035 10.1099L11.4996 14.4513C11.3694 14.5887 11.1888 14.6667 11 14.6667C10.8112 14.6667 10.6306 14.5887 10.5004 14.4522L6.3965 10.1108C5.20667 8.85317 5.20667 6.80625 6.3965 5.54767C7.57075 4.30558 9.63967 4.30558 10.8158 5.54767L11 5.74292L11.1843 5.54767C12.3594 4.30558 14.4283 4.30558 15.6035 5.54767C16.7933 6.80533 16.7933 8.85225 15.6035 10.1099Z" fill="url(#paint0_linear_960_7651)"/>
</g>
<defs>
<linearGradient id="paint0_linear_960_7651" x1="-1.56509" y1="-23.7355" x2="34.6361" y2="-17.3749" gradientUnits="userSpaceOnUse">
<stop stop-color="#00FEFC"/>
<stop offset="1" stop-color="#0002FE"/>
</linearGradient>
<clipPath id="clip0_960_7651">
<rect width="22" height="22" fill="white"/>
</clipPath>
</defs>
</svg>
