<svg width="28" height="29" viewBox="0 0 28 29" fill="none" xmlns="http://www.w3.org/2000/svg">
<g clip-path="url(#clip0_149_6698)">
<path d="M23.841 16.224C25.6189 16.224 27.0605 14.7834 27.0605 13.0055C27.0605 11.2276 25.6189 9.78601 23.841 9.78601C22.0636 9.78601 20.6219 11.2276 20.6219 13.0055C20.622 14.7834 22.0636 16.224 23.841 16.224Z" fill="white"/>
<path d="M27.9633 19.3262C27.8198 18.4643 27.1073 17.2578 26.568 16.7189C26.4969 16.6475 26.1794 16.631 26.0937 16.6841C25.438 17.0874 24.6677 17.3247 23.8411 17.3247C23.0154 17.3247 22.2451 17.0874 21.5893 16.6841C21.5032 16.631 21.1861 16.6475 21.1151 16.7189C20.9643 16.8697 20.7998 17.0704 20.6394 17.3031C21.0733 18.1202 21.4175 18.9881 21.5417 19.7354C21.6658 20.4846 21.6255 21.1939 21.4248 21.8406C22.1378 22.0985 22.9928 22.2117 23.841 22.2117C26.0534 22.2117 28.3175 21.4446 27.9633 19.3262Z" fill="white"/>
<path d="M13.9173 14.8659C16.7986 14.8659 19.1346 12.5299 19.1346 9.64861C19.1346 6.76822 16.7986 4.43219 13.9173 4.43219C11.0365 4.43219 8.70129 6.76822 8.70129 9.64861C8.70129 12.5299 11.0364 14.8659 13.9173 14.8659Z" fill="white"/>
<path d="M18.335 15.665C18.2218 15.5523 17.7077 15.5235 17.5679 15.61C16.5043 16.2644 15.2562 16.6475 13.9172 16.6475C12.5792 16.6475 11.3305 16.2644 10.2675 15.61C10.1278 15.5234 9.61365 15.5523 9.50045 15.665C8.6243 16.5402 7.46957 18.4969 7.23726 19.8917C6.66446 23.3275 10.3344 24.5679 13.9172 24.5679C17.501 24.5679 21.1709 23.3275 20.5981 19.8917C20.3658 18.4969 19.2111 16.5402 18.335 15.665Z" fill="white"/>
<path d="M4.15896 16.224C5.93641 16.224 7.37798 14.7834 7.37798 13.0055C7.37798 11.2276 5.93641 9.78601 4.15896 9.78601C2.38102 9.78601 0.939453 11.2276 0.939453 13.0055C0.939453 14.7834 2.38102 16.224 4.15896 16.224Z" fill="white"/>
<path d="M6.29423 19.7354C6.42624 18.9505 6.79872 18.0263 7.2657 17.1717C7.13554 16.9939 7.00544 16.839 6.88535 16.7189C6.81431 16.6475 6.49723 16.631 6.4111 16.6841C5.75534 17.0874 4.98506 17.3247 4.15896 17.3247C3.33274 17.3247 2.56197 17.0874 1.90676 16.6841C1.82101 16.631 1.50306 16.6475 1.43202 16.7189C0.891323 17.2578 0.180659 18.4643 0.0367214 19.3262C-0.316997 21.4446 1.94663 22.2117 4.15896 22.2117C4.94848 22.2117 5.74577 22.1145 6.42624 21.8923C6.21181 21.2325 6.16642 20.5066 6.29423 19.7354Z" fill="white"/>
</g>
<defs>
<clipPath id="clip0_149_6698">
<rect width="28" height="28" fill="white" transform="translate(0 0.5)"/>
</clipPath>
</defs>
</svg>
