<svg width="18" height="10" viewBox="0 0 18 10" fill="none" xmlns="http://www.w3.org/2000/svg">
<path fill-rule="evenodd" clip-rule="evenodd" d="M17 1.64872C17.0011 1.54562 16.9751 1.45051 16.9332 1.37581C16.8916 1.30165 16.8408 1.25826 16.7992 1.2363C16.7594 1.21521 16.7236 1.21089 16.6924 1.21526C16.6604 1.21974 16.617 1.23587 16.5709 1.27852L16.5649 1.28411L8.98927 8.07012L1.43143 1.06497C1.36883 1.00735 1.31079 0.996758 1.27096 1.00084C1.22911 1.00513 1.16139 1.03046 1.09812 1.11507C1.03259 1.2027 0.989976 1.33414 1.00202 1.47929C1.01404 1.62426 1.07616 1.73454 1.14298 1.79627L1.14393 1.79715L8.85414 8.93819C8.90863 8.9873 8.95896 9 8.99433 9C9.03007 9 9.08107 8.98704 9.1362 8.93667L9.14387 8.92966L16.8546 2.03102L16.8555 2.03019C16.8918 1.99722 16.9284 1.94879 16.9561 1.88392C16.9841 1.81837 17.0002 1.7423 16.9999 1.66229L17 1.64872ZM8.17798 9.67496L0.464424 2.53082C0.201884 2.28829 0.0367825 1.93978 0.00544009 1.56196C-0.0259023 1.18414 0.0790817 0.80796 0.297296 0.51617C0.515511 0.224379 0.829082 0.0408821 1.16903 0.00604822C1.50897 -0.0287866 1.84744 0.0878935 2.10998 0.330421L9.00076 6.71728L15.8915 0.544747C16.0802 0.370025 16.31 0.259038 16.5537 0.224919C16.7974 0.190799 17.0448 0.234973 17.2666 0.352217C17.4884 0.469461 17.6753 0.654865 17.8053 0.886493C17.9352 1.11812 18.0028 1.38628 17.9999 1.65923C18.0006 1.87269 17.9582 2.0836 17.8759 2.27646C17.7935 2.46933 17.6734 2.63924 17.5242 2.77372L9.81068 9.67496C9.58065 9.88511 9.29211 10 8.99433 10C8.69656 10 8.40802 9.88511 8.17798 9.67496Z" fill="#01B3FD"/>
<path d="M16.9332 1.37581C16.9751 1.45051 17.0011 1.54562 17 1.64872L16.9999 1.66229C17.0002 1.7423 16.9841 1.81837 16.9561 1.88392C16.9284 1.94879 16.8918 1.99722 16.8555 2.03019L16.8546 2.03102L9.14387 8.92966L9.1362 8.93667C9.08107 8.98704 9.03007 9 8.99433 9C8.95896 9 8.90863 8.9873 8.85414 8.93819L1.14393 1.79715L1.14298 1.79627C1.07616 1.73454 1.01404 1.62426 1.00202 1.47929C0.989976 1.33414 1.03259 1.2027 1.09812 1.11507C1.16139 1.03046 1.22911 1.00513 1.27096 1.00084C1.31079 0.996758 1.36883 1.00735 1.43143 1.06497L8.98927 8.07012L16.5649 1.28411L16.5709 1.27852C16.617 1.23587 16.6604 1.21974 16.6924 1.21526C16.7236 1.21089 16.7594 1.21521 16.7992 1.2363C16.8408 1.25826 16.8916 1.30165 16.9332 1.37581Z" fill="#01B3FD"/>
</svg>
