<svg width="26" height="26" viewBox="0 0 26 26" fill="none" xmlns="http://www.w3.org/2000/svg">
<g clip-path="url(#clip0_147_3249)">
<path d="M9.17129 14.42L4.87647 22.6104L2.67617 22.8605C2.30267 22.903 2.03379 22.5104 2.20832 22.1775L6.90051 13.2292L9.17129 14.42Z" fill="url(#paint0_linear_147_3249)"/>
<path d="M11.442 15.6097L7.1472 23.8001L6.56601 22.7144C6.47541 22.5452 6.29072 22.4483 6.09999 22.47L4.87646 22.6094L9.17124 14.4189L11.442 15.6097Z" fill="url(#paint1_linear_147_3249)"/>
<path d="M13.7125 16.8008L9.02029 25.749C8.84576 26.082 8.36989 26.084 8.19241 25.7526L7.14697 23.8005L11.4417 15.6101L13.7125 16.8008Z" fill="url(#paint2_linear_147_3249)"/>
<path d="M6.59576 19.3293L7.67578 22.7908L11.4414 15.6096L9.17063 14.4189L6.59576 19.3293Z" fill="url(#paint3_linear_147_3249)"/>
<path d="M9.17112 14.42L6.59641 19.3301L5.5163 15.8687L6.90034 13.2292L9.17112 14.42Z" fill="url(#paint4_linear_147_3249)"/>
<path d="M16.8289 14.42L21.1237 22.6104L23.324 22.8605C23.6975 22.903 23.9664 22.5104 23.7918 22.1775L19.0997 13.2292L16.8289 14.42Z" fill="url(#paint5_linear_147_3249)"/>
<path d="M14.5583 15.6104L18.8531 23.8009L19.4343 22.7152C19.5248 22.5459 19.7095 22.4491 19.9003 22.4707L21.1238 22.6101L16.829 14.4197L14.5583 15.6104Z" fill="url(#paint6_linear_147_3249)"/>
<path d="M12.2875 16.8008L16.9797 25.749C17.1543 26.082 17.6301 26.084 17.8076 25.7526L18.853 23.8005L14.5583 15.6101L12.2875 16.8008Z" fill="url(#paint7_linear_147_3249)"/>
<path d="M19.4039 19.33L18.3239 22.7915L14.5583 15.6103L16.8291 14.4197L19.4039 19.33Z" fill="url(#paint8_linear_147_3249)"/>
<path d="M16.8289 14.42L19.4036 19.3301L21.5964 18.032L19.0997 13.2292L16.8289 14.42Z" fill="url(#paint9_linear_147_3249)"/>
<path d="M22.7398 10.1013L21.2615 11.8352C21.1061 12.0174 21.0294 12.2538 21.048 12.4926L21.2249 14.7641C21.2595 15.2076 20.9666 15.6104 20.5341 15.7144L18.3189 16.2467C18.0855 16.3027 17.884 16.4493 17.7585 16.654L16.5693 18.5958C16.3367 18.9757 15.8623 19.1298 15.4509 18.9592L13.3471 18.0866C13.1251 17.9946 12.8757 17.9946 12.6537 18.0866L10.5498 18.9591C10.1384 19.1297 9.66401 18.9756 9.43138 18.5957L8.24219 16.6539C8.11681 16.4491 7.91526 16.3026 7.68187 16.2466L5.46669 15.7143C5.03419 15.6103 4.74128 15.2075 4.77586 14.764L4.95283 12.4926C4.97142 12.2539 4.89464 12.0174 4.73925 11.8352L3.26101 10.1013C2.97257 9.76304 2.97257 9.26533 3.26101 8.92702L4.73925 7.19315C4.89464 7.0109 4.97142 6.77451 4.95283 6.53568L4.77586 4.26419C4.74128 3.82072 5.03419 3.41787 5.46669 3.31392L7.68187 2.78163C7.91526 2.72557 8.11681 2.57901 8.24224 2.37431L9.43144 0.432489C9.66406 0.0526449 10.1385 -0.101476 10.5499 0.0691489L12.6538 0.941622C12.8757 1.03369 13.1252 1.03369 13.3471 0.941622L15.451 0.0691996C15.8624 -0.101425 16.3368 0.0526957 16.5694 0.432539L17.7586 2.37436C17.884 2.57911 18.0856 2.72562 18.319 2.78168L20.5341 3.31397C20.9666 3.41792 21.2596 3.82077 21.225 4.26424L21.048 6.53563C21.0294 6.77441 21.1062 7.01084 21.2616 7.1931L22.7398 8.92692C23.0282 9.26523 23.0282 9.76299 22.7398 10.1013Z" fill="url(#paint10_linear_147_3249)"/>
<path d="M22.7391 10.1012C22.8058 10.0229 22.8564 9.93593 22.8923 9.84457L17.9164 4.86872C16.6829 3.5637 14.9371 2.74805 12.9997 2.74805C9.26297 2.74805 6.23376 5.77725 6.23376 9.51394C6.23376 11.4513 7.04941 13.1972 8.35444 14.4307L12.1987 18.2749L12.653 18.0865C12.875 17.9945 13.1244 17.9945 13.3464 18.0865L15.4502 18.9589C15.8616 19.1295 16.336 18.9754 16.5687 18.5956L17.7579 16.6537C17.8832 16.449 18.0848 16.3025 18.3182 16.2464L20.5334 15.7141C20.9659 15.6102 21.2588 15.2073 21.2242 14.7639L21.0472 12.4924C21.0286 12.2536 21.1054 12.0171 21.2608 11.8349L22.7391 10.1012Z" fill="url(#paint11_linear_147_3249)"/>
<path d="M13 16.28C16.7368 16.28 19.7661 13.2507 19.7661 9.5139C19.7661 5.77709 16.7368 2.7478 13 2.7478C9.26317 2.7478 6.23389 5.77709 6.23389 9.5139C6.23389 13.2507 9.26317 16.28 13 16.28Z" fill="url(#paint12_linear_147_3249)"/>
<path d="M11.4128 8.26144V6.67144H14.1828V13.9714H12.4028V8.26144H11.4128Z" fill="white"/>
</g>
<defs>
<linearGradient id="paint0_linear_147_3249" x1="4.29924" y1="20.9507" x2="8.57691" y2="12.7925" gradientUnits="userSpaceOnUse">
<stop stop-color="#7ECCFD"/>
<stop offset="1" stop-color="#3FA9F5"/>
</linearGradient>
<linearGradient id="paint1_linear_147_3249" x1="8.15459" y1="19.1182" x2="11.0517" y2="13.5941" gradientUnits="userSpaceOnUse">
<stop stop-color="#E2EDF2"/>
<stop offset="1" stop-color="#9FC7E2"/>
</linearGradient>
<linearGradient id="paint2_linear_147_3249" x1="10.0151" y1="21.091" x2="14.4223" y2="12.6871" gradientUnits="userSpaceOnUse">
<stop stop-color="#FF5D00"/>
<stop offset="1" stop-color="#D54003"/>
</linearGradient>
<linearGradient id="paint3_linear_147_3249" x1="7.11633" y1="21.097" x2="9.50879" y2="16.5344" gradientUnits="userSpaceOnUse">
<stop stop-color="#9FC7E2" stop-opacity="0"/>
<stop offset="1" stop-color="#4975AD"/>
</linearGradient>
<linearGradient id="paint4_linear_147_3249" x1="5.44368" y1="18.7678" x2="6.51934" y2="16.7164" gradientUnits="userSpaceOnUse">
<stop stop-color="#3FA9F5" stop-opacity="0"/>
<stop offset="1" stop-color="#1F88C9"/>
</linearGradient>
<linearGradient id="paint5_linear_147_3249" x1="21.7004" y1="20.9502" x2="17.4222" y2="12.7925" gradientUnits="userSpaceOnUse">
<stop stop-color="#7ECCFD"/>
<stop offset="1" stop-color="#3FA9F5"/>
</linearGradient>
<linearGradient id="paint6_linear_147_3249" x1="17.845" y1="19.1188" x2="14.9484" y2="13.5946" gradientUnits="userSpaceOnUse">
<stop stop-color="#E2EDF2"/>
<stop offset="1" stop-color="#9FC7E2"/>
</linearGradient>
<linearGradient id="paint7_linear_147_3249" x1="15.9843" y1="21.0908" x2="11.5771" y2="12.6869" gradientUnits="userSpaceOnUse">
<stop stop-color="#FF5D00"/>
<stop offset="1" stop-color="#D54003"/>
</linearGradient>
<linearGradient id="paint8_linear_147_3249" x1="18.8829" y1="21.0977" x2="16.4899" y2="16.5345" gradientUnits="userSpaceOnUse">
<stop stop-color="#9FC7E2" stop-opacity="0"/>
<stop offset="1" stop-color="#4975AD"/>
</linearGradient>
<linearGradient id="paint9_linear_147_3249" x1="20.0839" y1="17.8675" x2="19.0082" y2="15.8166" gradientUnits="userSpaceOnUse">
<stop stop-color="#3FA9F5" stop-opacity="0"/>
<stop offset="1" stop-color="#1F88C9"/>
</linearGradient>
<linearGradient id="paint10_linear_147_3249" x1="8.35737" y1="4.87161" x2="24.6789" y2="21.1937" gradientUnits="userSpaceOnUse">
<stop stop-color="#CDA34F" stop-opacity="0.958352"/>
<stop offset="1" stop-color="#CDA34F"/>
</linearGradient>
<linearGradient id="paint11_linear_147_3249" x1="20.3184" y1="16.8333" x2="12.958" y2="9.47294" gradientUnits="userSpaceOnUse">
<stop stop-color="#FF5D00" stop-opacity="0"/>
<stop offset="1" stop-color="#D54003"/>
</linearGradient>
<linearGradient id="paint12_linear_147_3249" x1="9.80892" y1="6.32348" x2="21.0264" y2="17.541" gradientUnits="userSpaceOnUse">
<stop stop-color="#FFE7A5"/>
<stop offset="0.966" stop-color="#FFBF5C"/>
</linearGradient>
<clipPath id="clip0_147_3249">
<rect width="26" height="26" fill="white"/>
</clipPath>
</defs>
</svg>
