<svg width="23" height="21" viewBox="0 0 23 21" fill="none" xmlns="http://www.w3.org/2000/svg">
<path d="M22.633 5.59855C22.9007 5.28265 23.0317 4.87105 22.9935 4.45801C22.9539 4.04497 22.7503 3.66503 22.4287 3.40311L19.6863 1.18391C19.0243 0.648546 18.0529 0.750726 17.5175 1.41202L9.1207 11.7891L5.1371 8.43083C4.37866 7.79112 3.25899 7.83933 2.5574 8.53948L0.451181 10.645C0.148237 10.9479 -0.0143889 11.3638 0.000722323 11.792C0.0165531 12.2209 0.210121 12.621 0.534652 12.9016L8.52777 19.7844C8.83863 20.0528 9.24303 20.1859 9.65176 20.1535C10.0605 20.1219 10.4404 19.929 10.7059 19.616L22.633 5.59855Z" fill="white"/>
</svg>
