<svg width="26" height="26" viewBox="0 0 26 26" fill="none" xmlns="http://www.w3.org/2000/svg">
<g clip-path="url(#clip0_960_9796)">
<path d="M14.1457 1.54175C11.6267 1.55401 9.18291 2.40156 7.19722 3.95162C5.21154 5.50168 3.79615 7.66666 3.17281 10.1074L2.41031 8.95425C2.33813 8.83352 2.24224 8.72867 2.12843 8.64601C2.01462 8.56335 1.88525 8.50459 1.74812 8.47329C1.61098 8.44198 1.46893 8.43877 1.33052 8.46385C1.19212 8.48894 1.06023 8.54179 0.942802 8.61923C0.825377 8.69667 0.724852 8.79709 0.647289 8.91443C0.569726 9.03177 0.516732 9.16361 0.491502 9.30199C0.466273 9.44037 0.469331 9.58242 0.500492 9.71959C0.531652 9.85675 0.59027 9.98619 0.672811 10.1001L2.96448 13.573C3.12367 13.7958 3.35836 13.9531 3.62489 14.0157C3.89705 14.0697 4.17953 14.0155 4.41239 13.8647L7.8499 11.549C7.96842 11.475 8.07083 11.3779 8.15105 11.2635C8.23127 11.1491 8.28765 11.0197 8.31684 10.8831C8.34602 10.7464 8.34741 10.6053 8.32093 10.4681C8.29445 10.3309 8.24064 10.2004 8.16269 10.0844C8.08475 9.96847 7.98427 9.86937 7.86723 9.79303C7.75019 9.71669 7.61899 9.66468 7.48144 9.64009C7.34389 9.6155 7.2028 9.61884 7.06656 9.6499C6.93032 9.68097 6.80173 9.73913 6.68844 9.82092L5.12489 10.8751C5.54102 9.1859 6.42357 7.64771 7.67186 6.43598C8.92014 5.22426 10.4839 4.38781 12.1847 4.02207C13.8855 3.65633 15.6548 3.77603 17.2909 4.3675C18.9269 4.95898 20.3638 5.99841 21.4375 7.36721C22.5112 8.73601 23.1786 10.3791 23.3634 12.1089C23.5482 13.8387 23.2431 15.5857 22.4828 17.1504C21.7226 18.7152 20.5378 20.0348 19.0637 20.9586C17.5895 21.8824 15.8854 22.3732 14.1457 22.3751C12.6544 22.3711 11.1861 22.007 9.86567 21.3139C8.54522 20.6207 7.41166 19.619 6.56135 18.3938C6.4852 18.2769 6.38632 18.1765 6.2706 18.0985C6.15488 18.0205 6.02466 17.9665 5.88769 17.9398C5.75072 17.9132 5.60978 17.9143 5.47324 17.9431C5.3367 17.9719 5.20735 18.0279 5.09286 18.1077C4.97837 18.1875 4.88109 18.2895 4.80678 18.4076C4.73246 18.5257 4.68264 18.6576 4.66027 18.7953C4.6379 18.933 4.64344 19.0739 4.67655 19.2094C4.70966 19.345 4.76967 19.4725 4.85302 19.5845C6.23538 21.5773 8.22055 23.0742 10.5168 23.8552C12.813 24.6361 15.2992 24.6598 17.6099 23.9229C19.9206 23.186 21.9341 21.7273 23.3542 19.7612C24.7744 17.7951 25.5265 15.4253 25.4999 13.0001C25.5102 9.97603 24.3205 7.07138 22.192 4.9233C20.0634 2.77521 17.1697 1.55911 14.1457 1.54175Z" fill="white"/>
<path d="M14.0417 6.698C13.7654 6.698 13.5004 6.80774 13.3051 7.0031C13.1097 7.19845 13 7.4634 13 7.73966V13.0001C13.0044 13.2754 13.1136 13.5388 13.3052 13.7365L16.4302 16.8897C16.6263 17.0827 16.89 17.1915 17.1652 17.1928C17.4403 17.1942 17.7051 17.088 17.9031 16.897C18.0992 16.7024 18.2101 16.438 18.2112 16.1618C18.2124 15.8856 18.1038 15.6202 17.9094 15.424L15.0833 12.572V7.73966C15.0833 7.4634 14.9736 7.19845 14.7782 7.0031C14.5829 6.80774 14.3179 6.698 14.0417 6.698Z" fill="white"/>
</g>
<defs>
<clipPath id="clip0_960_9796">
<rect width="25" height="25" fill="white" transform="translate(0.5 0.5)"/>
</clipPath>
</defs>
</svg>
