<svg width="40" height="35" viewBox="0 0 40 35" fill="none" xmlns="http://www.w3.org/2000/svg">
<mask id="mask0_151_8362" style="mask-type:alpha" maskUnits="userSpaceOnUse" x="0" y="0" width="40" height="35">
<path d="M29.7458 26.92C29.7535 25.6683 28.717 24.6474 27.4305 24.6399C26.1441 24.6323 25.095 25.6409 25.0872 26.8926C25.0795 28.1443 26.116 29.1651 27.4025 29.1727C28.6889 29.1802 29.738 28.1716 29.7458 26.92Z" fill="#4BF0FC"/>
<path d="M24.5376 32.0519C24.5454 30.8002 23.5143 29.8978 22.2209 29.7873C20.9345 29.7797 19.8868 30.7728 19.8791 32.0245C19.8713 33.2762 20.9079 34.297 22.1943 34.3046C23.4807 34.3121 24.5299 33.3036 24.5376 32.0519Z" fill="#4BF0FC"/>
<path fill-rule="evenodd" clip-rule="evenodd" d="M23.7818 30.4148C24.5976 31.0762 24.5376 32.0519 24.5376 32.0519C24.5339 31.9932 24.5456 32.1124 24.5376 32.0519C24.4177 30.5286 25.8496 29.0833 27.4025 29.1727C27.4025 29.1727 26.4351 29.2062 25.7458 28.4856C25.0049 27.711 25.0872 26.8926 25.0872 26.8926C25.1897 28.4301 23.8037 29.9225 22.2209 29.7873C22.0519 29.7863 22.3743 29.7752 22.2209 29.7873C22.2209 29.7873 23.1286 29.8266 23.7818 30.4148Z" fill="#4BF0FC"/>
<path d="M22.31 0.00199801C21.0258 -0.0500846 19.9414 0.922435 19.8879 2.17418C19.8343 3.42593 20.832 4.48289 22.1162 4.53497C23.4004 4.58705 24.4848 3.61453 24.5383 2.36279C24.5919 1.11104 23.5942 0.0540807 22.31 0.00199801Z" fill="#4BF0FC"/>
<path d="M27.391 5.25344C26.1068 5.20136 25.1441 6.17275 24.9847 7.42763C24.9311 8.67937 25.913 9.73433 27.1972 9.78641C28.4814 9.83849 29.5658 8.86598 29.6193 7.61423C29.6729 6.36248 28.6752 5.30552 27.391 5.25344Z" fill="#4BF0FC"/>
<path fill-rule="evenodd" clip-rule="evenodd" d="M25.6842 5.93076C26.392 5.16036 27.391 5.25344 27.391 5.25344C27.3306 5.25498 27.4534 5.24786 27.391 5.25344C25.8236 5.316 24.3913 3.87091 24.5383 2.36279C24.5383 2.36279 24.5383 3.30547 23.7743 3.95067C22.9531 4.64418 22.1162 4.53497 22.1162 4.53497C23.6976 4.48998 25.1797 5.89193 24.9847 7.42763C24.9776 7.59211 24.9778 7.2779 24.9847 7.42763C24.9847 7.42763 25.0574 6.54563 25.6842 5.93076Z" fill="#4BF0FC"/>
<path d="M33.9657 22.2867C33.9735 21.035 32.9424 20.1326 31.649 20.0221C30.3626 20.0145 29.3149 21.0076 29.3072 22.2593C29.2994 23.511 30.336 24.5319 31.6224 24.5394C32.9088 24.547 33.958 23.5384 33.9657 22.2867Z" fill="#4BF0FC"/>
<path fill-rule="evenodd" clip-rule="evenodd" d="M33.2099 20.6496C34.0257 21.3111 33.9657 22.2867 33.9657 22.2867C33.962 22.228 33.9737 22.3472 33.9657 22.2867C33.8457 20.7634 35.2777 19.3181 36.8306 19.4075C36.8306 19.4075 35.8632 19.441 35.1739 18.7204C34.433 17.9458 34.5153 17.1274 34.5153 17.1274C34.5191 17.1838 34.5208 17.2402 34.5206 17.2964C34.5158 18.7723 33.1737 20.1524 31.649 20.0221C31.4799 20.0211 31.8024 20.01 31.649 20.0221C31.649 20.0221 32.5567 20.0615 33.2099 20.6496Z" fill="#4BF0FC"/>
<path d="M31.6399 14.072C32.9241 14.124 33.8868 13.1526 34.0462 11.8978C34.0998 10.646 33.1179 9.59107 31.8337 9.53899C30.5495 9.4869 29.4651 10.4594 29.4116 11.7112C29.358 12.9629 30.3557 14.0199 31.6399 14.072Z" fill="#4BF0FC"/>
<path fill-rule="evenodd" clip-rule="evenodd" d="M33.3467 13.3946C32.6389 14.165 31.6399 14.072 31.6399 14.072C31.5775 14.0775 31.7003 14.0704 31.6399 14.072C33.2073 14.0094 34.6396 15.4545 34.4926 16.9626C34.4926 16.9626 34.4926 16.0199 35.2566 15.3747C36.0778 14.6812 36.9147 14.7904 36.9147 14.7904C35.3333 14.8354 33.8512 13.4335 34.0462 11.8978C34.0531 12.0475 34.0533 11.7333 34.0462 11.8978C34.0462 11.8978 33.9735 12.7798 33.3467 13.3946Z" fill="#4BF0FC"/>
<path d="M2.32514 1.61124C2.82889 2.1403 2.79687 2.96689 2.25361 3.45748C1.71035 3.94807 0.861575 3.91688 0.357822 3.38782C-0.14593 2.85875 -0.113903 2.03216 0.429357 1.54158C0.972617 1.05099 1.82139 1.08218 2.32514 1.61124Z" fill="#21F8F6"/>
<path d="M12.5111 1.34103C13.2164 2.08172 13.1715 3.23895 12.411 3.92577C11.6504 4.61259 10.4621 4.56893 9.75687 3.82824C9.05161 3.08755 9.09645 1.93032 9.85702 1.2435C10.6176 0.556678 11.8059 0.600344 12.5111 1.34103Z" fill="#21F8F6"/>
<path d="M6.88647 6.31465C7.39022 6.84371 7.35819 7.67031 6.81493 8.16089C6.27167 8.65148 5.4229 8.62029 4.91915 8.09123C4.4154 7.56216 4.44742 6.73557 4.99068 6.24499C5.53394 5.7544 6.38271 5.78559 6.88647 6.31465Z" fill="#21F8F6"/>
<path d="M17.0724 6.04444C17.7777 6.78513 17.7329 7.94236 16.9723 8.62918C16.2117 9.316 15.0234 9.27234 14.3182 8.53165C13.6129 7.79096 13.6578 6.63373 14.4183 5.94691C15.1789 5.26009 16.3672 5.30375 17.0724 6.04444Z" fill="#21F8F6"/>
<path d="M11.8488 11.2783C12.3526 11.8074 12.3205 12.634 11.7773 13.1246C11.234 13.6152 10.3853 13.584 9.8815 13.0549C9.37775 12.5258 9.40978 11.6993 9.95304 11.2087C10.4963 10.7181 11.3451 10.7493 11.8488 11.2783Z" fill="#21F8F6"/>
<path d="M22.0348 11.0081C22.74 11.7488 22.6952 12.906 21.9346 13.5929C21.1741 14.2797 19.9858 14.236 19.2806 13.4953C18.5753 12.7546 18.6201 11.5974 19.3807 10.9106C20.1413 10.2238 21.3295 10.2674 22.0348 11.0081Z" fill="#21F8F6"/>
<path d="M16.678 16.1128C17.1817 16.6419 17.1497 17.4685 16.6064 17.9591C16.0632 18.4496 15.2144 18.4185 14.7106 17.8894C14.2069 17.3603 14.2389 16.5337 14.7822 16.0431C15.3254 15.5526 16.1742 15.5837 16.678 16.1128Z" fill="#21F8F6"/>
<path d="M26.8639 15.8426C27.5692 16.5833 27.5243 17.7405 26.7638 18.4273C26.0032 19.1142 24.8149 19.0705 24.1097 18.3298C23.4044 17.5891 23.4493 16.4319 24.2098 15.7451C24.9704 15.0582 26.1587 15.1019 26.8639 15.8426Z" fill="#21F8F6"/>
<path d="M11.8488 20.9462C12.3526 21.4752 12.3205 22.3018 11.7773 22.7924C11.234 23.283 10.3853 23.2518 9.8815 22.7227C9.37775 22.1937 9.40978 21.3671 9.95304 20.8765C10.4963 20.3859 11.3451 20.4171 11.8488 20.9462Z" fill="#21F8F6"/>
<path d="M22.0348 20.6756C22.74 21.4163 22.6952 22.5735 21.9346 23.2604C21.1741 23.9472 19.9858 23.9035 19.2806 23.1628C18.5753 22.4221 18.6201 21.2649 19.3807 20.5781C20.1413 19.8913 21.3295 19.9349 22.0348 20.6756Z" fill="#21F8F6"/>
<path d="M7.15504 25.9107C7.65879 26.4397 7.62676 27.2663 7.0835 27.7569C6.54024 28.2475 5.69147 28.2163 5.18772 27.6872C4.68397 27.1582 4.71599 26.3316 5.25925 25.841C5.80252 25.3504 6.65129 25.3816 7.15504 25.9107Z" fill="#21F8F6"/>
<path d="M17.3393 25.6405C18.0446 26.3811 17.9997 27.5384 17.2392 28.2252C16.4786 28.912 15.2903 28.8684 14.5851 28.1277C13.8798 27.387 13.9247 26.2297 14.6852 25.5429C15.4458 24.8561 16.6341 24.8998 17.3393 25.6405Z" fill="#21F8F6"/>
<path d="M2.32514 31.0057C2.82889 31.5348 2.79687 32.3614 2.25361 32.852C1.71035 33.3426 0.861575 33.3114 0.357822 32.7823C-0.14593 32.2533 -0.113903 31.4267 0.429357 30.9361C0.972617 30.4455 1.82139 30.4767 2.32514 31.0057Z" fill="#21F8F6"/>
<path d="M12.5111 30.7356C13.2164 31.4763 13.1715 32.6335 12.411 33.3203C11.6504 34.0071 10.4621 33.9635 9.75687 33.2228C9.05161 32.4821 9.09645 31.3249 9.85702 30.638C10.6176 29.9512 11.8059 29.9949 12.5111 30.7356Z" fill="#21F8F6"/>
<path fill-rule="evenodd" clip-rule="evenodd" d="M39.0427 16.3893C38.7608 15.4966 37.9268 14.8315 36.9147 14.7904C35.6305 14.7383 34.5461 15.7109 34.4926 16.9626C34.4811 17.2302 34.5177 17.489 34.5949 17.7309C34.8603 18.6915 35.7587 19.4012 36.8306 19.4075C38.117 19.415 39.1661 18.4065 39.1739 17.1548C39.1755 16.8865 39.1292 16.6287 39.0427 16.3893ZM39.0427 16.3893C39.1185 16.6294 39.1544 16.8859 39.143 17.1512C39.0895 18.403 38.0051 19.3755 36.7209 19.3234C35.7113 19.2825 34.8788 18.6204 34.5949 17.7309C34.5562 17.5909 34.531 17.4456 34.5206 17.2964C34.5208 17.2402 34.5191 17.1838 34.5153 17.1274C34.5231 15.8757 35.5722 14.8671 36.8586 14.8747C37.8693 14.8806 38.7257 15.512 39.0427 16.3893Z" fill="#4BF0FC"/>
<path d="M36.8586 14.8747C35.5722 14.8671 34.5231 15.8757 34.5153 17.1274C34.5191 17.1838 34.5208 17.2402 34.5206 17.2964C34.531 17.4456 34.5562 17.5909 34.5949 17.7309C34.8788 18.6204 35.7113 19.2825 36.7209 19.3234C38.0051 19.3755 39.0895 18.403 39.143 17.1512C39.1544 16.8859 39.1185 16.6294 39.0427 16.3893C38.7257 15.512 37.8693 14.8806 36.8586 14.8747Z" fill="#21F8F6"/>
</mask>
<g mask="url(#mask0_151_8362)">
<path d="M29.8294 26.92C29.8372 25.6683 28.8006 24.6475 27.5142 24.6399C26.2277 24.6324 25.1786 25.6409 25.1708 26.8926C25.1631 28.1443 26.1997 29.1651 27.4861 29.1727C28.7725 29.1803 29.8216 28.1717 29.8294 26.92Z" fill="#23C1FF"/>
<path d="M24.6212 32.0519C24.629 30.8002 23.5979 29.8978 22.3045 29.7873C21.0181 29.7798 19.9704 30.7729 19.9627 32.0246C19.9549 33.2762 20.9915 34.2971 22.2779 34.3046C23.5644 34.3122 24.6135 33.3036 24.6212 32.0519Z" fill="#23C1FF"/>
<path fill-rule="evenodd" clip-rule="evenodd" d="M23.8655 30.4148C24.6812 31.0763 24.6212 32.0519 24.6212 32.0519C24.6175 31.9932 24.6292 32.1124 24.6212 32.0519C24.5013 30.5287 25.9332 29.0833 27.4861 29.1727C27.4861 29.1727 26.5187 29.2062 25.8294 28.4856C25.0886 27.711 25.1708 26.8926 25.1708 26.8926C25.2733 28.4301 23.8874 29.9225 22.3045 29.7873C22.1355 29.7863 22.4579 29.7752 22.3045 29.7873C22.3045 29.7873 23.2122 29.8267 23.8655 30.4148Z" fill="#23C1FF"/>
<path d="M22.394 0.00199801C21.1098 -0.0500847 20.0254 0.922435 19.9719 2.17418C19.9183 3.42593 20.916 4.48289 22.2002 4.53497C23.4844 4.58705 24.5688 3.61453 24.6223 2.36279C24.6759 1.11104 23.6782 0.0540807 22.394 0.00199801Z" fill="#23C1FF"/>
<path d="M27.475 5.25344C26.1908 5.20136 25.2281 6.17275 25.0687 7.42763C25.0151 8.67937 25.997 9.73433 27.2812 9.78641C28.5654 9.8385 29.6498 8.86598 29.7033 7.61423C29.7569 6.36248 28.7592 5.30552 27.475 5.25344Z" fill="#23C1FF"/>
<path fill-rule="evenodd" clip-rule="evenodd" d="M25.7682 5.93076C26.476 5.16036 27.475 5.25344 27.475 5.25344C27.4146 5.25499 27.5374 5.24786 27.475 5.25344C25.9076 5.316 24.4753 3.87091 24.6223 2.36279C24.6223 2.36279 24.6223 3.30547 23.8583 3.95067C23.0371 4.64418 22.2002 4.53497 22.2002 4.53497C23.7816 4.48998 25.2637 5.89193 25.0687 7.42763C25.0616 7.59211 25.0618 7.2779 25.0687 7.42763C25.0687 7.42763 25.1414 6.54563 25.7682 5.93076Z" fill="#23C1FF"/>
<path d="M39.258 17.1551C39.2657 15.9034 38.2292 14.8826 36.9427 14.875C35.6563 14.8675 34.6072 15.876 34.5994 17.1277C34.5917 18.3794 35.6282 19.4002 36.9147 19.4078C38.2011 19.4154 39.2502 18.4068 39.258 17.1551Z" fill="#23C1FF"/>
<path d="M34.0498 22.287C34.0576 21.0353 33.0265 20.1329 31.7331 20.0224C30.4467 20.0149 29.399 21.008 29.3913 22.2597C29.3835 23.5114 30.4201 24.5322 31.7065 24.5397C32.9929 24.5473 34.0421 23.5387 34.0498 22.287Z" fill="#23C1FF"/>
<path fill-rule="evenodd" clip-rule="evenodd" d="M33.294 20.6499C34.1098 21.3114 34.0498 22.287 34.0498 22.287C34.0461 22.2283 34.0578 22.3475 34.0498 22.287C33.9299 20.7638 35.3618 19.3184 36.9147 19.4078C36.9147 19.4078 35.9473 19.4413 35.258 18.7207C34.5171 17.9461 34.5994 17.1277 34.5994 17.1277C34.7019 18.6652 33.3159 20.1576 31.7331 20.0224C31.5641 20.0214 31.8865 20.0104 31.7331 20.0224C31.7331 20.0224 32.6408 20.0618 33.294 20.6499Z" fill="#23C1FF"/>
<path d="M36.8046 19.3237C38.0888 19.3758 39.1732 18.4032 39.2267 17.1515C39.2803 15.8998 38.2826 14.8428 36.9984 14.7907C35.7142 14.7386 34.6298 15.7111 34.5763 16.9629C34.5227 18.2146 35.5204 19.2716 36.8046 19.3237Z" fill="#23C1FF"/>
<path d="M31.7236 14.0722C33.0078 14.1243 33.9705 13.1529 34.1299 11.8981C34.1835 10.6463 33.2016 9.59135 31.9174 9.53927C30.6332 9.48719 29.5488 10.4597 29.4953 11.7115C29.4418 12.9632 30.4394 14.0202 31.7236 14.0722Z" fill="#23C1FF"/>
<path fill-rule="evenodd" clip-rule="evenodd" d="M33.4305 13.3949C32.7226 14.1653 31.7236 14.0722 31.7236 14.0722C31.784 14.0707 31.6612 14.0778 31.7236 14.0722C33.291 14.0097 34.7233 15.4548 34.5763 16.9629C34.5763 16.9629 34.5763 16.0202 35.3403 15.375C36.1615 14.6815 36.9984 14.7907 36.9984 14.7907C35.417 14.8357 33.9349 13.4338 34.1299 11.8981C34.137 11.7336 34.1369 12.0478 34.1299 11.8981C34.1299 11.8981 34.0572 12.7801 33.4305 13.3949Z" fill="#23C1FF"/>
<ellipse cx="1.32538" cy="1.32274" rx="1.32538" ry="1.32274" transform="matrix(0.74217 -0.670212 0.689571 0.724218 -0.469131 2.43018)" fill="#23C1FF"/>
<ellipse cx="1.85554" cy="1.85184" rx="1.85554" ry="1.85184" transform="matrix(0.74217 -0.670212 0.689571 0.724218 8.56598 2.4873)" fill="#23C1FF"/>
<ellipse cx="1.32538" cy="1.32274" rx="1.32538" ry="1.32274" transform="matrix(0.74217 -0.670212 0.689571 0.724218 4.09045 7.1333)" fill="#23C1FF"/>
<ellipse cx="1.85554" cy="1.85184" rx="1.85554" ry="1.85184" transform="matrix(0.74217 -0.670212 0.689571 0.724218 13.1256 7.19043)" fill="#23C1FF"/>
<ellipse cx="1.32538" cy="1.32274" rx="1.32538" ry="1.32274" transform="matrix(0.74217 -0.670212 0.689571 0.724218 9.05469 12.0972)" fill="#23C1FF"/>
<ellipse cx="1.85554" cy="1.85184" rx="1.85554" ry="1.85184" transform="matrix(0.74217 -0.670212 0.689571 0.724218 18.0881 12.1543)" fill="#23C1FF"/>
<ellipse cx="1.32538" cy="1.32274" rx="1.32538" ry="1.32274" transform="matrix(0.74217 -0.670212 0.689571 0.724218 13.8816 16.9314)" fill="#23C1FF"/>
<ellipse cx="1.85554" cy="1.85184" rx="1.85554" ry="1.85184" transform="matrix(0.74217 -0.670212 0.689571 0.724218 22.9167 16.9885)" fill="#23C1FF"/>
<ellipse cx="1.32538" cy="1.32274" rx="1.32538" ry="1.32274" transform="matrix(0.74217 -0.670212 0.689571 0.724218 9.05469 21.7651)" fill="#23C1FF"/>
<ellipse cx="1.85554" cy="1.85184" rx="1.85554" ry="1.85184" transform="matrix(0.74217 -0.670212 0.689571 0.724218 18.0881 21.822)" fill="#23C1FF"/>
<ellipse cx="1.32538" cy="1.32274" rx="1.32538" ry="1.32274" transform="matrix(0.74217 -0.670212 0.689571 0.724218 4.36115 26.7297)" fill="#23C1FF"/>
<ellipse cx="1.85554" cy="1.85184" rx="1.85554" ry="1.85184" transform="matrix(0.74217 -0.670212 0.689571 0.724218 13.3929 26.7869)" fill="#23C1FF"/>
<ellipse cx="1.32538" cy="1.32274" rx="1.32538" ry="1.32274" transform="matrix(0.74217 -0.670212 0.689571 0.724218 -0.469131 31.8247)" fill="#23C1FF"/>
<ellipse cx="1.85554" cy="1.85184" rx="1.85554" ry="1.85184" transform="matrix(0.74217 -0.670212 0.689571 0.724218 8.56598 31.8818)" fill="#23C1FF"/>
</g>
</svg>
