<svg width="37" height="38" viewBox="0 0 37 38" fill="none" xmlns="http://www.w3.org/2000/svg">
<path d="M23.125 28.25H13.875C13.875 29.4766 14.3623 30.653 15.2296 31.5204C16.097 32.3877 17.2734 32.875 18.5 32.875C19.7266 32.875 20.903 32.3877 21.7704 31.5204C22.6377 30.653 23.125 29.4766 23.125 28.25Z" stroke="#2CA9BC" stroke-width="2" stroke-linecap="round" stroke-linejoin="round"/>
<path d="M29.8776 22.6692C30.181 22.9729 30.4216 23.3335 30.5856 23.7303C30.7496 24.1271 30.8338 24.5523 30.8334 24.9817C30.8334 25.8485 30.4891 26.6798 29.8761 27.2927C29.2632 27.9057 28.4319 28.25 27.5651 28.25H9.43508C8.56827 28.25 7.73695 27.9057 7.12402 27.2927C6.51109 26.6798 6.16675 25.8485 6.16675 24.9817C6.16637 24.5523 6.25059 24.1271 6.4146 23.7303C6.5786 23.3335 6.81918 22.9729 7.12258 22.6692L9.25008 20.5417V14.375C9.25008 11.9217 10.2246 9.56897 11.9593 7.83426C13.6941 6.09955 16.0468 5.125 18.5001 5.125C20.9533 5.125 23.3061 6.09955 25.0408 7.83426C26.7755 9.56897 27.7501 11.9217 27.7501 14.375V20.5417L29.8776 22.6692Z" stroke="url(#paint0_linear_151_9967)" stroke-width="2" stroke-linecap="round" stroke-linejoin="round"/>
<circle cx="26" cy="8" r="3" fill="#FF003D"/>
<defs>
<linearGradient id="paint0_linear_151_9967" x1="-0.284099" y1="-19.8257" x2="52.227" y2="-6.7046" gradientUnits="userSpaceOnUse">
<stop stop-color="#00FEFC"/>
<stop offset="1" stop-color="#0002FE"/>
</linearGradient>
</defs>
</svg>
