<svg width="41" height="41" viewBox="0 0 41 41" fill="none" xmlns="http://www.w3.org/2000/svg">
<path fill-rule="evenodd" clip-rule="evenodd" d="M13.4998 0H27.3852L39.6422 12.2592V35.8006C39.6422 38.6592 37.3037 41 34.4428 41H13.4999C10.6413 41 8.30286 38.6592 8.30286 35.8006V5.19939C8.30286 2.34076 10.6413 0 13.4998 0Z" fill="#004CFB"/>
<path fill-rule="evenodd" clip-rule="evenodd" d="M27.3853 0L39.6422 12.2592H28.7068C27.9781 12.2592 27.3853 11.6641 27.3853 10.9354V0Z" fill="#23C1FF"/>
<path fill-rule="evenodd" clip-rule="evenodd" d="M2.4989 17.4586H30.7359C31.3639 17.4586 31.877 17.9718 31.877 18.5997V28.9587C31.877 29.5866 31.3639 30.0998 30.7359 30.0998H2.4989C1.87093 30.0998 1.35779 29.5866 1.35779 28.9587V18.5997C1.35779 17.9718 1.87101 17.4586 2.4989 17.4586Z" fill="#6B97FF"/>
<path d="M9.42991 19.571H7.29999C6.93443 19.571 6.63806 19.8674 6.63806 20.2329V23.7242V24.5841V27.3232C6.63806 27.6888 6.93443 27.9851 7.29999 27.9851C7.66554 27.9851 7.96191 27.6888 7.96191 27.3232V25.246H9.42983C10.9692 25.246 12.2217 23.9936 12.2217 22.4542V22.3629C12.2217 20.8234 10.9693 19.571 9.42991 19.571ZM10.8979 22.4541C10.8979 23.2636 10.2393 23.9221 9.42991 23.9221H7.96191V23.7241V20.8948H9.42983C10.2393 20.8948 10.8978 21.5533 10.8978 22.3627V22.4541H10.8979ZM16.553 19.571H14.4232C14.0576 19.571 13.7613 19.8674 13.7613 20.2329V27.3232C13.7613 27.6888 14.0576 27.9851 14.4232 27.9851H16.553C18.0924 27.9851 19.3449 26.7327 19.3449 25.1934V22.3629C19.3449 20.8234 18.0924 19.571 16.553 19.571ZM18.021 25.1933C18.021 26.0027 17.3624 26.6612 16.553 26.6612H15.0851V20.8948H16.553C17.3624 20.8948 18.021 21.5533 18.021 22.3627V25.1933ZM22.337 20.8949V22.7272H25.4053C25.7709 22.7272 26.0673 23.0236 26.0673 23.3891C26.0673 23.7547 25.7709 24.0511 25.4053 24.0511H22.337V27.3232C22.337 27.6888 22.0406 27.9851 21.6751 27.9851C21.3095 27.9851 21.0131 27.6888 21.0131 27.3232V20.2329C21.0131 19.8674 21.3095 19.571 21.6751 19.571H25.9348C26.3004 19.571 26.5967 19.8674 26.5967 20.2329C26.5967 20.5985 26.3004 20.8949 25.9348 20.8949H22.337Z" fill="#D9D7FE"/>
</svg>
