<svg width="56" height="57" viewBox="0 0 56 57" fill="none" xmlns="http://www.w3.org/2000/svg">
<g filter="url(#filter0_bddd_124_342)">
<rect x="10" y="0.5" width="36" height="36" rx="18" fill="black" fill-opacity="0.5" shape-rendering="crispEdges"/>
<rect x="10.5" y="1" width="35" height="35" rx="17.5" stroke="#17B9FF" stroke-opacity="0.5" shape-rendering="crispEdges"/>
<rect x="10.5" y="1" width="35" height="35" rx="17.5" stroke="url(#paint0_linear_124_342)" style="mix-blend-mode:overlay" shape-rendering="crispEdges"/>
<path d="M28 26.5C23.5817 26.5 20 22.9183 20 18.5C20 16.4511 20.7703 14.582 22.037 13.1667L24.4444 10.5M24.4444 10.5H20M24.4444 10.5V14.9444M28 10.5C32.4183 10.5 36 14.0817 36 18.5C36 20.549 35.2297 22.418 33.9629 23.8333L31.5556 26.5M31.5556 26.5H36M31.5556 26.5V22.0556" stroke="white" stroke-width="1.5" stroke-linecap="round" stroke-linejoin="round"/>
</g>
<defs>
<filter id="filter0_bddd_124_342" x="-10" y="-19.5" width="76" height="76" filterUnits="userSpaceOnUse" color-interpolation-filters="sRGB">
<feFlood flood-opacity="0" result="BackgroundImageFix"/>
<feGaussianBlur in="BackgroundImageFix" stdDeviation="10"/>
<feComposite in2="SourceAlpha" operator="in" result="effect1_backgroundBlur_124_342"/>
<feColorMatrix in="SourceAlpha" type="matrix" values="0 0 0 0 0 0 0 0 0 0 0 0 0 0 0 0 0 0 127 0" result="hardAlpha"/>
<feOffset dy="10"/>
<feGaussianBlur stdDeviation="5"/>
<feComposite in2="hardAlpha" operator="out"/>
<feColorMatrix type="matrix" values="0 0 0 0 0 0 0 0 0 0 0 0 0 0 0 0 0 0 0.1 0"/>
<feBlend mode="normal" in2="effect1_backgroundBlur_124_342" result="effect2_dropShadow_124_342"/>
<feColorMatrix in="SourceAlpha" type="matrix" values="0 0 0 0 0 0 0 0 0 0 0 0 0 0 0 0 0 0 127 0" result="hardAlpha"/>
<feOffset dy="4"/>
<feGaussianBlur stdDeviation="2"/>
<feComposite in2="hardAlpha" operator="out"/>
<feColorMatrix type="matrix" values="0 0 0 0 0 0 0 0 0 0 0 0 0 0 0 0 0 0 0.05 0"/>
<feBlend mode="normal" in2="effect2_dropShadow_124_342" result="effect3_dropShadow_124_342"/>
<feColorMatrix in="SourceAlpha" type="matrix" values="0 0 0 0 0 0 0 0 0 0 0 0 0 0 0 0 0 0 127 0" result="hardAlpha"/>
<feOffset dy="1"/>
<feComposite in2="hardAlpha" operator="out"/>
<feColorMatrix type="matrix" values="0 0 0 0 0 0 0 0 0 0 0 0 0 0 0 0 0 0 0.05 0"/>
<feBlend mode="normal" in2="effect3_dropShadow_124_342" result="effect4_dropShadow_124_342"/>
<feBlend mode="normal" in="SourceGraphic" in2="effect4_dropShadow_124_342" result="shape"/>
</filter>
<linearGradient id="paint0_linear_124_342" x1="11.6541" y1="0.5" x2="25.3764" y2="22.263" gradientUnits="userSpaceOnUse">
<stop stop-color="white"/>
<stop offset="1" stop-color="white" stop-opacity="0"/>
</linearGradient>
</defs>
</svg>
