<svg width="45" height="44" viewBox="0 0 45 44" fill="none" xmlns="http://www.w3.org/2000/svg">
<g filter="url(#filter0_bddd_679_3293)">
<rect x="10" width="25" height="24" rx="12" fill="black" fill-opacity="0.5" shape-rendering="crispEdges"/>
<rect x="10.5" y="0.5" width="24" height="23" rx="11.5" stroke="#17B9FF" stroke-opacity="0.5" shape-rendering="crispEdges"/>
<rect x="10.5" y="0.5" width="24" height="23" rx="11.5" stroke="url(#paint0_linear_679_3293)" style="mix-blend-mode:overlay" shape-rendering="crispEdges"/>
<path d="M23 18C19.6863 18 17 15.3137 17 12C17 10.4633 17.5777 9.06151 18.5278 8L20.3333 6M20.3333 6H17M20.3333 6V9.33333M23 6C26.3137 6 29 8.68629 29 12C29 13.5367 28.4223 14.9385 27.4722 16L25.6667 18M25.6667 18H29M25.6667 18V14.6667" stroke="white" stroke-width="1.5" stroke-linecap="round" stroke-linejoin="round"/>
</g>
<defs>
<filter id="filter0_bddd_679_3293" x="-10" y="-20" width="65" height="64" filterUnits="userSpaceOnUse" color-interpolation-filters="sRGB">
<feFlood flood-opacity="0" result="BackgroundImageFix"/>
<feGaussianBlur in="BackgroundImageFix" stdDeviation="10"/>
<feComposite in2="SourceAlpha" operator="in" result="effect1_backgroundBlur_679_3293"/>
<feColorMatrix in="SourceAlpha" type="matrix" values="0 0 0 0 0 0 0 0 0 0 0 0 0 0 0 0 0 0 127 0" result="hardAlpha"/>
<feOffset dy="10"/>
<feGaussianBlur stdDeviation="5"/>
<feComposite in2="hardAlpha" operator="out"/>
<feColorMatrix type="matrix" values="0 0 0 0 0 0 0 0 0 0 0 0 0 0 0 0 0 0 0.1 0"/>
<feBlend mode="normal" in2="effect1_backgroundBlur_679_3293" result="effect2_dropShadow_679_3293"/>
<feColorMatrix in="SourceAlpha" type="matrix" values="0 0 0 0 0 0 0 0 0 0 0 0 0 0 0 0 0 0 127 0" result="hardAlpha"/>
<feOffset dy="4"/>
<feGaussianBlur stdDeviation="2"/>
<feComposite in2="hardAlpha" operator="out"/>
<feColorMatrix type="matrix" values="0 0 0 0 0 0 0 0 0 0 0 0 0 0 0 0 0 0 0.05 0"/>
<feBlend mode="normal" in2="effect2_dropShadow_679_3293" result="effect3_dropShadow_679_3293"/>
<feColorMatrix in="SourceAlpha" type="matrix" values="0 0 0 0 0 0 0 0 0 0 0 0 0 0 0 0 0 0 127 0" result="hardAlpha"/>
<feOffset dy="1"/>
<feComposite in2="hardAlpha" operator="out"/>
<feColorMatrix type="matrix" values="0 0 0 0 0 0 0 0 0 0 0 0 0 0 0 0 0 0 0.05 0"/>
<feBlend mode="normal" in2="effect3_dropShadow_679_3293" result="effect4_dropShadow_679_3293"/>
<feBlend mode="normal" in="SourceGraphic" in2="effect4_dropShadow_679_3293" result="shape"/>
</filter>
<linearGradient id="paint0_linear_679_3293" x1="11.1486" y1="2.369e-07" x2="20.1313" y2="14.8397" gradientUnits="userSpaceOnUse">
<stop stop-color="white"/>
<stop offset="1" stop-color="white" stop-opacity="0"/>
</linearGradient>
</defs>
</svg>
