<svg width="16" height="15" viewBox="0 0 16 15" fill="none" xmlns="http://www.w3.org/2000/svg">
<g clip-path="url(#clip0_960_9617)">
<path d="M9.47556 0C13.0699 0 16.0002 2.74723 16.0002 6.11689C16.0002 9.48656 13.0699 12.2338 9.47556 12.2338C7.96559 12.2338 6.57368 11.7485 5.46578 10.9363L1.3654 14.7804C1.05309 15.0732 0.546776 15.0732 0.234464 14.7804C-0.0777855 14.4877 -0.0777855 14.013 0.234464 13.7202L4.33484 9.87609C3.46821 8.83772 2.94931 7.53252 2.94931 6.11692C2.94931 2.74726 5.88124 0 9.47556 0ZM9.47556 1.49959C6.74571 1.49959 4.54884 3.55767 4.54884 6.11692C4.54884 8.67615 6.74568 10.7343 9.47556 10.7343C12.2054 10.7343 14.4007 8.67615 14.4007 6.11692C14.4007 3.55767 12.2054 1.49959 9.47556 1.49959Z" fill="white"/>
</g>
<defs>
<clipPath id="clip0_960_9617">
<rect width="16" height="15" fill="white"/>
</clipPath>
</defs>
</svg>
