<svg width="28" height="29" viewBox="0 0 28 29" fill="none" xmlns="http://www.w3.org/2000/svg">
<g clip-path="url(#clip0_1_951)">
<path d="M23.841 16.2239C25.6189 16.2239 27.0605 14.7833 27.0605 13.0054C27.0605 11.2275 25.6189 9.78589 23.841 9.78589C22.0636 9.78589 20.6219 11.2275 20.6219 13.0054C20.622 14.7833 22.0636 16.2239 23.841 16.2239Z" fill="white"/>
<path d="M27.9632 19.3262C27.8198 18.4643 27.1072 17.2578 26.5679 16.7189C26.4969 16.6475 26.1794 16.631 26.0936 16.6841C25.4379 17.0874 24.6677 17.3247 23.841 17.3247C23.0153 17.3247 22.245 17.0874 21.5893 16.6841C21.5031 16.631 21.1861 16.6475 21.115 16.7189C20.9642 16.8697 20.7997 17.0704 20.6393 17.3031C21.0733 18.1202 21.4174 18.9881 21.5416 19.7354C21.6658 20.4846 21.6255 21.1939 21.4247 21.8406C22.1377 22.0985 22.9928 22.2117 23.841 22.2117C26.0534 22.2117 28.3174 21.4446 27.9632 19.3262Z" fill="white"/>
<path d="M13.9173 14.8658C16.7986 14.8658 19.1346 12.5298 19.1346 9.64855C19.1346 6.76816 16.7986 4.43213 13.9173 4.43213C11.0365 4.43213 8.70129 6.76816 8.70129 9.64855C8.70129 12.5298 11.0364 14.8658 13.9173 14.8658Z" fill="white"/>
<path d="M18.3351 15.6648C18.2219 15.5521 17.7077 15.5233 17.568 15.6098C16.5044 16.2642 15.2563 16.6473 13.9173 16.6473C12.5793 16.6473 11.3306 16.2642 10.2676 15.6098C10.1278 15.5233 9.61371 15.5521 9.50051 15.6648C8.62436 16.5401 7.46963 18.4967 7.23732 19.8915C6.66452 23.3273 10.3345 24.5677 13.9173 24.5677C17.5011 24.5677 21.171 23.3273 20.5982 19.8915C20.3659 18.4967 19.2111 16.5401 18.3351 15.6648Z" fill="white"/>
<path d="M4.15896 16.2239C5.93641 16.2239 7.37798 14.7833 7.37798 13.0054C7.37798 11.2275 5.93641 9.78589 4.15896 9.78589C2.38102 9.78589 0.939453 11.2275 0.939453 13.0054C0.939453 14.7833 2.38102 16.2239 4.15896 16.2239Z" fill="white"/>
<path d="M6.29423 19.7354C6.42624 18.9505 6.79872 18.0263 7.2657 17.1717C7.13554 16.9939 7.00544 16.839 6.88535 16.7189C6.81431 16.6475 6.49723 16.631 6.4111 16.6841C5.75534 17.0874 4.98506 17.3247 4.15896 17.3247C3.33274 17.3247 2.56197 17.0874 1.90676 16.6841C1.82101 16.631 1.50306 16.6475 1.43202 16.7189C0.891323 17.2578 0.180659 18.4643 0.0367214 19.3262C-0.316997 21.4446 1.94663 22.2117 4.15896 22.2117C4.94848 22.2117 5.74577 22.1145 6.42624 21.8923C6.21181 21.2325 6.16642 20.5066 6.29423 19.7354Z" fill="white"/>
</g>
<defs>
<clipPath id="clip0_1_951">
<rect width="28" height="28" fill="white" transform="translate(0 0.5)"/>
</clipPath>
</defs>
</svg>
