<svg width="14" height="14" viewBox="0 0 14 14" fill="none" xmlns="http://www.w3.org/2000/svg">
<g clip-path="url(#clip0_1_2709)">
<path d="M4.8125 2.625V1.31162C4.8125 1.19559 4.85859 1.08431 4.94064 1.00227C5.02269 0.920218 5.13397 0.874125 5.25 0.874125H8.75C8.86603 0.874125 8.97731 0.920218 9.05936 1.00227C9.14141 1.08431 9.1875 1.19559 9.1875 1.31162V2.625H12.6875C12.8035 2.625 12.9148 2.67109 12.9969 2.75314C13.0789 2.83519 13.125 2.94647 13.125 3.0625C13.125 3.17853 13.0789 3.28981 12.9969 3.37186C12.9148 3.45391 12.8035 3.5 12.6875 3.5H1.3125C1.19647 3.5 1.08519 3.45391 1.00314 3.37186C0.921094 3.28981 0.875 3.17853 0.875 3.0625C0.875 2.94647 0.921094 2.83519 1.00314 2.75314C1.08519 2.67109 1.19647 2.625 1.3125 2.625H4.8125ZM5.6875 2.625H8.3125V1.75H5.6875V2.625ZM2.625 13.125C2.50897 13.125 2.39769 13.0789 2.31564 12.9969C2.23359 12.9148 2.1875 12.8035 2.1875 12.6875V3.5H11.8125V12.6875C11.8125 12.8035 11.7664 12.9148 11.6844 12.9969C11.6023 13.0789 11.491 13.125 11.375 13.125H2.625ZM5.6875 10.5C5.80353 10.5 5.91481 10.4539 5.99686 10.3719C6.07891 10.2898 6.125 10.1785 6.125 10.0625V5.6875C6.125 5.57147 6.07891 5.46019 5.99686 5.37814C5.91481 5.29609 5.80353 5.25 5.6875 5.25C5.57147 5.25 5.46019 5.29609 5.37814 5.37814C5.29609 5.46019 5.25 5.57147 5.25 5.6875V10.0625C5.25 10.1785 5.29609 10.2898 5.37814 10.3719C5.46019 10.4539 5.57147 10.5 5.6875 10.5ZM8.3125 10.5C8.42853 10.5 8.53981 10.4539 8.62186 10.3719C8.70391 10.2898 8.75 10.1785 8.75 10.0625V5.6875C8.75 5.57147 8.70391 5.46019 8.62186 5.37814C8.53981 5.29609 8.42853 5.25 8.3125 5.25C8.19647 5.25 8.08519 5.29609 8.00314 5.37814C7.92109 5.46019 7.875 5.57147 7.875 5.6875V10.0625C7.875 10.1785 7.92109 10.2898 8.00314 10.3719C8.08519 10.4539 8.19647 10.5 8.3125 10.5Z" fill="#FF003D"/>
</g>
<defs>
<clipPath id="clip0_1_2709">
<rect width="14" height="14" fill="white"/>
</clipPath>
</defs>
</svg>
